<svg xmlns="http://www.w3.org/2000/svg" width="780" height="440" viewBox="0 0 780 440"><defs><style>.d{fill:#fff;}.e{fill:#0b968f;}.f{fill:#c9faf0;}.g{fill:#162020;}.h{fill:#7dead5;}.i{fill:#ffcd1c;}.j{fill:#08c4b2;}.k{fill:#24e0c5;}.l{fill:#ffd943;}</style></defs><g id="a"><rect class="h" x=".0018" y=".0014" width="780" height="440"></rect></g><g id="b"><g><path class="i" d="M174.1112,309.5138l17.871,36.1729,14.7129-8.4681s-11.4627-9.1279-12.9784-29.5984"></path><path class="g" d="M191.7168,346.5605l-18.166-36.7705,1.1211-.5527,17.5762,35.5752,13.377-7.6992c-2.5371-2.3457-11.21-11.5947-12.5312-29.4473l1.2461-.0918c1.4756,19.9307,12.6328,29.0664,12.7451,29.1562l.7168,.5723-16.085,9.2578Z"></path></g><g><circle class="i" cx="245.2542" cy="280.3966" r="11.3498"></circle><path class="g" d="M245.2285,292.374c-2.4277,0-4.7939-.7393-6.8271-2.1572-2.623-1.8311-4.376-4.5732-4.9365-7.7227-.5605-3.1484,.1387-6.3271,1.9697-8.9502,1.8301-2.623,4.5723-4.377,7.7217-4.9365,3.1523-.5576,6.3281,.1396,8.9512,1.9688,2.623,1.8311,4.376,4.5732,4.9365,7.7227,.5605,3.1484-.1396,6.3271-1.9697,8.9502s-4.5732,4.377-7.7217,4.9365c-.709,.126-1.4189,.1885-2.124,.1885Zm.0488-22.7051c-.6309,0-1.2676,.0557-1.9023,.1689-2.8203,.502-5.2764,2.0723-6.916,4.4209-1.6396,2.3496-2.2656,5.1963-1.7637,8.0166h0c.502,2.8203,2.0723,5.2764,4.4219,6.916,2.3486,1.6387,5.1934,2.2666,8.0166,1.7637,2.8203-.502,5.2764-2.0713,6.915-4.4209,1.6396-2.3496,2.2666-5.1963,1.7646-8.0166s-2.0723-5.2764-4.4219-6.916c-1.8203-1.2705-3.9395-1.9326-6.1143-1.9326Z"></path></g><g><path class="d" d="M196.1131,271.0314s21.3802-6.8626,42.6895-26.077l12.6363,71.0067s-26.1428-9.4404-48.9962-9.3619"></path><path class="g" d="M252.2432,316.916l-1.0166-.3672c-.2598-.0938-26.0898-9.3242-48.501-9.3242h-.2812l-.0039-1.25c.0938,0,.1895-.001,.2842-.001,20.1035,0,42.8838,7.3398,47.9121,9.0479l-12.2529-68.8545c-20.8916,18.5205-41.8672,25.3916-42.0791,25.459l-.3828-1.1895c.2129-.0684,21.5078-7.0518,42.4619-25.9463l.8369-.7549,13.0225,73.1807Z"></path></g><g><rect class="j" x="163.4307" y="273.9168" width="36.1266" height="36.1266" transform="translate(-48.3493 36.3153) rotate(-10.0907)"></rect><path class="g" d="M166.874,313.5537c-.2969,0-.5605-.2129-.6143-.5156l-6.3301-35.5674c-.0293-.1631,.0078-.3311,.1025-.4668s.2402-.2285,.4033-.2578l35.5684-6.3301c.1631-.0312,.3311,.0088,.4668,.1025,.1357,.0947,.2285,.2402,.2578,.4033l6.3291,35.5684c.0605,.3398-.166,.6641-.5059,.7246l-35.5674,6.3291c-.0371,.0068-.0742,.0098-.1104,.0098Zm-5.6045-35.6865l6.1113,34.3369,34.3369-6.1104-6.1104-34.3379-34.3379,6.1113Z"></path></g><g><path class="l" d="M164.707,213.4632h-.0046c-.2172-.0011-.4218-.0983-.5589-.2652l-8.0973-9.799c-.4999-.6049-1.2437-.9552-2.0285-.9552h-26.2764c-4.2339,0-7.6662-3.4323-7.6662-7.6662v-58.5697c0-4.2339,3.4323-7.6662,7.6662-7.6662h72.914c4.2339,0,7.6662,3.4323,7.6662,7.6662v58.5697c0,4.2339-3.4323,7.6662-7.6662,7.6662h-25.0391c-.7726,0-1.5062,.3396-2.0062,.9286l-8.3453,9.8324c-.1394,.1634-.3429,.2583-.5578,.2583Z"></path><path d="M164.707,214.0884h-.0049c-.4082-.0029-.7861-.1826-1.042-.4937l-8.0957-9.7979c-.3818-.4629-.9453-.728-1.5469-.728h-26.2764c-4.5713,0-8.291-3.7192-8.291-8.291v-58.5698c0-4.5718,3.7197-8.291,8.291-8.291h72.9141c4.5713,0,8.291,3.7192,8.291,8.291v58.5698c0,4.5718-3.7197,8.291-8.291,8.291h-25.0391c-.5898,0-1.1475,.2583-1.5293,.708l-8.3457,9.8325c-.2617,.3052-.6377,.479-1.0342,.479Zm-36.9658-84.9214c-3.8828,0-7.041,3.1587-7.041,7.041v58.5698c0,3.8823,3.1582,7.041,7.041,7.041h26.2764c.9756,0,1.8906,.4312,2.5107,1.1826l8.1787,9.8369c.0312,0,.0615-.0146,.083-.04l8.3438-9.8301c.6201-.7305,1.5254-1.1494,2.4824-1.1494h25.0391c3.8828,0,7.041-3.1587,7.041-7.041v-58.5698c0-3.8823-3.1582-7.041-7.041-7.041H127.7412Z"></path></g><g><g><path class="d" d="M183.428,169.3452l-1.3357,.4161,.8418,1.1171c.3858,.5113,.5892,1.1166,.5892,1.7506,0,1.4283-1.0231,2.6361-2.4324,2.8718l-1.3362,.2234,.6248,1.2023c.2169,.418,.3271,.868,.3271,1.3369,0,1.5351-1.1958,2.8059-2.7263,2.9038l-16.8071,.0065c-.05-.0007-2.0825-.0397-3.5726-1.3071-.3232-.2751-.6195-.4695-.9322-.6113l-.3603-.1638v-15.5368l1.752-1.4983,5.9156-10.9656c.2605-.4305,.4521-.8956,.5695-1.381,.1203-.4942,.1616-1.0063,.1224-1.5216l-.4675-6.1515c.4069-.2318,.8704-.3562,1.343-.3562,2.5536,0,4.7417,4.0801,4.7417,7.4204,0,.4634-.0356,.9298-.1049,1.3846l-1.0277,6.6592h12.8213c.8187,0,1.6277,.3418,2.2193,.9377,.5512,.5551,.8523,1.2648,.847,1.9986-.0063,.9086-.4286,1.7472-1.1587,2.3009l-1.1929,.904,1.3021,.7381c.9144,.518,1.4824,1.4904,1.4824,2.5373,0,1.2838-.822,2.4026-2.0447,2.784Z"></path><path class="g" d="M161.1729,181.7988c-.248-.0049-2.3652-.085-3.9775-1.4561-.2773-.2363-.5264-.4009-.7852-.5181l-.7275-.3311v-16.2271l1.8818-1.6099,5.8613-10.8628c.2422-.4019,.4092-.8071,.5117-1.2305,.1055-.4336,.1416-.8804,.1074-1.3281l-.498-6.5454,.3438-.1963c.502-.2866,1.0742-.4385,1.6523-.4385,2.9727,0,5.3662,4.4014,5.3662,8.0454,0,.4956-.0371,.9932-.1113,1.479l-.917,5.9399h12.0928c.9854,0,1.9551,.4092,2.6631,1.123,.6689,.6729,1.0342,1.5405,1.0283,2.4429-.0088,1.1045-.5215,2.123-1.4062,2.7944l-.4365,.3306,.4766,.27c1.1094,.6289,1.7988,1.8091,1.7988,3.0806,0,1.5586-.998,2.9175-2.4834,3.3809h-.001l-.4883,.1523,.3076,.4082c.4678,.6201,.7158,1.356,.7158,2.1265,0,1.7349-1.2422,3.2021-2.9541,3.4883l-.4883,.0815,.2285,.4395c.2627,.5073,.3965,1.0542,.3965,1.6255,0,1.8594-1.4541,3.4087-3.3105,3.5269l-16.8477,.0083Zm-4.2402-3.1099c.3652,.1665,.707,.3896,1.0732,.7021,1.3037,1.1089,3.1035,1.1562,3.1787,1.1577l16.7959-.0068c1.1602-.0752,2.1006-1.0767,2.1006-2.2783,0-.3691-.0859-.7222-.2559-1.0498l-1.0215-1.9644,2.1846-.3652c1.1064-.1851,1.9102-1.1338,1.9102-2.2554,0-.4966-.1602-.9722-.4639-1.374l-1.376-1.8267,2.1836-.6797c.96-.2998,1.6055-1.1787,1.6055-2.1875,0-.8223-.4463-1.5859-1.166-1.9932l-2.127-1.207,1.9482-1.4771c.5742-.4351,.9072-1.0938,.9121-1.8076,.0039-.5659-.2324-1.1177-.666-1.5527-.4746-.4795-1.1221-.7539-1.7754-.7539h-13.5498l1.1377-7.3794c.0645-.4224,.0977-.8569,.0977-1.2896,0-2.9956-1.9385-6.7954-4.1162-6.7954-.2344,0-.4668,.04-.6865,.1167l.4346,5.7188c.0439,.5791-.0029,1.1567-.1387,1.7168-.1328,.5479-.3486,1.0723-.6426,1.5571l-6.0439,11.1167-1.5332,1.3115v14.8462Z"></path></g><g><rect class="d" x="145.3663" y="161.0275" width="11.4637" height="20.3478"></rect><path class="g" d="M156.8301,182.0005h-11.4639c-.3447,0-.625-.2798-.625-.625v-20.3481c0-.3452,.2803-.625,.625-.625h11.4639c.3447,0,.625,.2798,.625,.625v20.3481c0,.3452-.2803,.625-.625,.625Zm-10.8389-1.25h10.2139v-19.0981h-10.2139v19.0981Z"></path></g></g><path class="g" d="M582.2803,127.7808c-1.293,0-2.5322-.4492-3.5342-1.2905-1.1289-.9463-1.8213-2.2764-1.9502-3.7437-.1289-1.4678,.3223-2.8975,1.2695-4.0259,.9463-1.1284,2.2754-1.8208,3.7432-1.9492,1.4736-.1274,2.8984,.3223,4.0254,1.2686,1.1289,.9468,1.8213,2.2764,1.9502,3.7437,.1289,1.4678-.3223,2.8975-1.2695,4.0264h0c-.9463,1.1284-2.2754,1.8208-3.7432,1.9492-.1641,.0146-.3281,.0215-.4912,.0215Zm.0166-9.7808c-.126,0-.252,.0054-.3789,.0166-1.1348,.0991-2.1631,.6348-2.8955,1.5073-.7324,.873-1.0811,1.9785-.9814,3.1138,.0996,1.1348,.6348,2.1631,1.5078,2.895,.873,.7324,1.9785,1.0811,3.1133,.9814s2.1631-.6348,2.8955-1.5078h0c.7324-.8726,1.0811-1.9785,.9814-3.1133s-.6348-2.1631-1.5078-2.895c-.7754-.6504-1.7344-.998-2.7344-.998Z"></path><g><path class="g" d="M574.457,171.9814c-.1416,0-.2842-.0479-.4014-.146l-8.5791-7.1973c-.2646-.2222-.2988-.6162-.0771-.8809,.2207-.2642,.6162-.2983,.8799-.0771l8.5791,7.1973c.2646,.2222,.2988,.6162,.0771,.8809-.123,.147-.3008,.2231-.4785,.2231Z"></path><path class="g" d="M566.5684,172.6724c-.1416,0-.2842-.0479-.4014-.146-.2646-.2222-.2988-.6162-.0771-.8809l7.1973-8.5791c.2207-.2646,.6152-.2988,.8799-.0771,.2646,.2222,.2988,.6162,.0771,.8809l-7.1973,8.5791c-.123,.147-.3008,.2231-.4785,.2231Z"></path></g><path class="g" d="M612.8223,166.1504c-.3203,0-.5928-.2451-.6221-.5703l-.7656-8.7354c-.0293-.3438,.2246-.647,.5684-.6772l8.7354-.7656c.335-.0278,.6465,.2236,.6777,.5679l.7656,8.7354c.0293,.3438-.2246,.647-.5684,.6772l-8.7354,.7656c-.0186,.0015-.0371,.0024-.0557,.0024Zm-.0879-8.7925l.6572,7.4902,7.4902-.6562-.6572-7.4902-7.4902,.6562Z"></path><g><path class="j" d="M588.4338,229.1642c-23.0562,0-41.747,18.6908-41.747,41.7469s18.6908,41.7469,41.747,41.7469,41.747-18.6907,41.747-41.7469-18.6908-41.7469-41.747-41.7469Zm0,71.0908c-16.2062,0-29.3437-13.1377-29.3437-29.3438s13.1376-29.3439,29.3437-29.3439,29.3437,13.1377,29.3437,29.3439-13.1376,29.3438-29.3437,29.3438Z"></path><path class="g" d="M588.4336,313.2832c-23.3643,0-42.3721-19.0078-42.3721-42.3721s19.0078-42.3721,42.3721-42.3721,42.3721,19.0078,42.3721,42.3721-19.0078,42.3721-42.3721,42.3721Zm0-83.4941c-22.6748,0-41.1221,18.4473-41.1221,41.1221s18.4473,41.1221,41.1221,41.1221,41.1221-18.4473,41.1221-41.1221-18.4473-41.1221-41.1221-41.1221Zm0,71.0908c-16.5244,0-29.9688-13.4443-29.9688-29.9688s13.4443-29.9688,29.9688-29.9688,29.9688,13.4443,29.9688,29.9688-13.4443,29.9688-29.9688,29.9688Zm0-58.6875c-15.8359,0-28.7188,12.8828-28.7188,28.7188s12.8828,28.7188,28.7188,28.7188,28.7188-12.8828,28.7188-28.7188-12.8828-28.7188-28.7188-28.7188Z"></path></g><g><path class="j" d="M588.4338,194.7534c-42.0608,0-76.1579,34.097-76.1579,76.1578s34.0971,76.1577,76.1579,76.1577,76.1579-34.0969,76.1579-76.1577-34.0971-76.1578-76.1579-76.1578Zm0,140.7096c-35.6511,0-64.5518-28.9009-64.5518-64.5519s28.9008-64.5519,64.5518-64.5519,64.5518,28.9009,64.5518,64.5519-28.9008,64.5519-64.5518,64.5519Z"></path><path class="g" d="M588.4336,347.6943c-42.3379,0-76.7822-34.4443-76.7822-76.7832s34.4443-76.7827,76.7822-76.7827,76.7832,34.4448,76.7832,76.7827-34.4443,76.7832-76.7832,76.7832Zm0-152.3159c-41.6484,0-75.5322,33.8843-75.5322,75.5327s33.8838,75.5332,75.5322,75.5332,75.5332-33.8838,75.5332-75.5332-33.8838-75.5327-75.5332-75.5327Zm0,140.7095c-35.9385,0-65.1768-29.2383-65.1768-65.1768s29.2383-65.1768,65.1768-65.1768,65.1768,29.2383,65.1768,65.1768-29.2383,65.1768-65.1768,65.1768Zm0-129.1035c-35.249,0-63.9268,28.6777-63.9268,63.9268s28.6777,63.9268,63.9268,63.9268,63.9268-28.6777,63.9268-63.9268-28.6777-63.9268-63.9268-63.9268Z"></path></g><g><circle class="j" cx="588.4339" cy="270.9112" r="9.6804" transform="translate(-51.3377 169.2271) rotate(-15.6901)"></circle><path class="g" d="M588.4336,281.2168c-5.6816,0-10.3047-4.623-10.3047-10.3057s4.623-10.3057,10.3047-10.3057,10.3057,4.623,10.3057,10.3057-4.623,10.3057-10.3057,10.3057Zm0-19.3613c-4.9932,0-9.0547,4.0625-9.0547,9.0557s4.0615,9.0557,9.0547,9.0557,9.0557-4.0625,9.0557-9.0557-4.0625-9.0557-9.0557-9.0557Z"></path></g><g><g><polygon class="l" points="651.8305 208.035 672.3657 187.4997 672.3657 169.5313 651.8304 190.0666 651.8305 208.035"></polygon><path d="M651.8301,208.6602c-.0811,0-.1621-.0156-.2393-.0474-.2334-.0972-.3857-.3247-.3857-.5776v-17.9688c0-.1655,.0654-.3247,.1826-.4419l20.5352-20.5352c.1797-.1797,.4492-.231,.6816-.1357,.2334,.0972,.3857,.3247,.3857,.5776v17.9683c0,.1655-.0654,.3247-.1826,.4419l-20.5352,20.5356c-.1201,.1196-.2803,.1831-.4424,.1831Zm.625-18.335v16.2012l19.2852-19.2856v-16.2007l-19.2852,19.2852Z"></path></g><g><polygon class="l" points="651.6879 207.8924 672.2231 187.3571 690.1915 187.3571 669.6562 207.8924 651.6879 207.8924"></polygon><path d="M669.6562,208.5176h-17.9688c-.2529,0-.4805-.1523-.5771-.3857s-.0439-.5024,.1348-.6812l20.5352-20.5356c.1172-.1172,.2764-.1831,.4424-.1831h17.9688c.2529,0,.4805,.1523,.5771,.3857s.0439,.5024-.1348,.6812l-20.5352,20.5356c-.1172,.1172-.2764,.1831-.4424,.1831Zm-16.46-1.25h16.2012l19.2852-19.2856h-16.2012l-19.2852,19.2856Z"></path></g><g><line class="j" x1="588.5386" y1="270.7358" x2="675.0244" y2="184.2497"></line><path class="g" d="M588.5391,271.3604c-.1602,0-.3203-.0605-.4424-.1826-.2432-.2441-.2432-.6406,0-.8848l86.4854-86.4854c.2441-.2441,.6406-.2441,.8848,0,.2432,.2441,.2432,.6396,0,.8838l-86.4854,86.4863c-.1221,.1221-.2822,.1826-.4424,.1826Z"></path></g></g><g><rect class="d" x="339.9753" y="273.2553" width="95.0018" height="50.0425"></rect><path class="g" d="M435.6025,323.9229h-96.252v-51.293h96.252v51.293Zm-95.002-1.25h93.752v-48.793h-93.752v48.793Z"></path></g><g><polygon class="e" points="527.2341 108.8298 555.3088 60.203 219.6438 60.203 247.7185 108.8298 527.2341 108.8298"></polygon><path class="g" d="M527.2344,109.4546H247.7188c-.2236,0-.4297-.1191-.541-.3125l-28.0752-48.6265c-.1123-.1934-.1123-.4316,0-.625,.1113-.1934,.3174-.3125,.541-.3125h335.665c.2236,0,.4297,.1191,.541,.3125,.1123,.1934,.1123,.4316,0,.625l-28.0742,48.6265c-.1113,.1934-.3174,.3125-.541,.3125Zm-279.1543-1.25h278.793l27.3535-47.3765H220.7266l27.3535,47.3765Z"></path></g><g><rect class="k" x="339.9753" y="344.7447" width="95.0018" height="35.0522"></rect><path class="g" d="M434.9775,380.4219h-95.002c-.3447,0-.625-.2803-.625-.625v-35.0518c0-.3447,.2803-.625,.625-.625h95.002c.3447,0,.625,.2803,.625,.625v35.0518c0,.3447-.2803,.625-.625,.625Zm-94.377-1.25h93.752v-33.8018h-93.752v33.8018Z"></path></g><g><polygon class="f" points="260.1008 130.2766 288.9928 180.3192 485.9598 180.3192 514.8518 130.2766 260.1008 130.2766"></polygon><path class="g" d="M486.3203,180.9443h-197.6875l-29.6152-51.293h256.917l-29.6143,51.293Zm-196.9658-1.25h196.2441l28.1709-48.793h-252.5859l28.1709,48.793Z"></path></g><g><polygon class="j" points="301.375 201.7659 330.2671 251.8085 444.6855 251.8085 473.5775 201.7659 301.375 201.7659"></polygon><path class="g" d="M444.6855,252.4336h-114.418c-.2236,0-.4297-.1191-.541-.3125l-28.8926-50.0425c-.1123-.1934-.1123-.4316,0-.625,.1113-.1934,.3174-.3125,.541-.3125h172.2021c.2236,0,.4297,.1191,.541,.3125,.1123,.1934,.1123,.4316,0,.625l-28.8916,50.0425c-.1113,.1934-.3174,.3125-.541,.3125Zm-114.0576-1.25h113.6973l28.1689-48.7925h-170.0361l28.1699,48.7925Z"></path></g></g></svg>